<svg width="64" height="55" viewBox="0 0 64 55" fill="none" xmlns="http://www.w3.org/2000/svg">
<path d="M25.0402 55C23.3795 55.0027 21.7629 54.4764 20.4342 53.5004L20.3518 53.4399L3.00348 40.439C1.3866 39.2183 0.329906 37.4192 0.0651489 35.4364C-0.199609 33.4535 0.349187 31.4487 1.59116 29.8616C2.83314 28.2746 4.66691 27.2349 6.69031 26.9705C8.71371 26.7061 10.7615 27.2387 12.3847 28.4513L23.6216 36.8929L50.1749 2.95621C50.7906 2.16941 51.5585 1.50912 52.4347 1.01305C53.3109 0.516973 54.2783 0.194829 55.2816 0.0650052C56.2848 -0.0648191 57.3044 0.000229718 58.282 0.256421C59.2597 0.512612 60.1762 0.954928 60.9794 1.55813L60.9816 1.55977L60.8168 1.78394L60.9861 1.55977C62.6064 2.77972 63.6665 4.57957 63.9337 6.56434C64.201 8.54912 63.6535 10.5567 62.4115 12.1465L31.179 52.0457C30.4564 52.965 29.5274 53.7089 28.464 54.2197C27.4005 54.7305 26.2313 54.9944 25.0469 54.991L25.0402 55Z" fill="#62C153"/>
</svg>
