<svg xmlns="http://www.w3.org/2000/svg" fill="none" viewBox="0 0 24 24">
<path d="M12 -2.62268e-07C5.37258 -4.07115e-07 4.07115e-07 5.37258 2.62268e-07 12C1.17421e-07 18.6274 5.37258 24 12 24C18.6274 24 24 18.6274 24 12C24 5.37258 18.6274 -1.17421e-07 12 -2.62268e-07Z" fill="#F92F57"/>
<path d="M5.20782 15.3379C5.09299 15.4561 5.74451 16.3181 6.6625 17.2629C7.5805 18.2078 8.41863 18.879 8.53346 18.7608L18.3431 8.66416C18.4729 8.56139 17.8357 7.71032 16.9196 6.76354C16.4118 6.10966 15.7631 5.58629 15.0249 5.23481L5.20845 15.3385L5.20782 15.3379Z" fill="white"/>
<path d="M8.95599 5.23891C8.84116 5.12072 8.00366 5.7913 7.08566 6.73616C6.16767 7.68101 5.51552 8.54366 5.63035 8.66185L15.44 18.7585C15.5398 18.8921 16.3667 18.2363 17.2866 17.2934C17.9219 16.7707 18.4304 16.103 18.7719 15.3433L8.95536 5.23955L8.95599 5.23891Z" fill="white"/>
</svg>