<svg width="20" height="20" viewBox="0 0 20 20" fill="none" xmlns="http://www.w3.org/2000/svg">
<path d="M10 0.015625C9.46875 0.015625 9 0.203125 8.59375 0.578125L0.578125 8.59375C0.203125 8.96875 0.015625 9.4375 0.015625 10C0.015625 10.5625 0.203125 11.0312 0.578125 11.4062L8.59375 19.4219C8.96875 19.7969 9.4375 19.9844 10 19.9844C10.5625 19.9844 11.0312 19.7969 11.4062 19.4219L19.4219 11.4062C19.7969 11.0312 19.9844 10.5625 19.9844 10C19.9844 9.4375 19.7969 8.96875 19.4219 8.59375L11.4062 0.578125C11 0.203125 10.5312 0.015625 10 0.015625ZM9.01562 4.98438H10.9844V10.9844H9.01562V4.98438ZM9.01562 13H10.9844V15.0156H9.01562V13Z" fill="#DD911D"/>
</svg>
