<svg width="32" height="32" viewBox="0 0 32 32" fill="none" xmlns="http://www.w3.org/2000/svg">
<rect width="32" height="32" rx="8" fill="#10A1C1" fill-opacity="0.1"/>
<path d="M25.0469 17.125C25.1719 17.125 25.2969 17.1875 25.4219 17.3125L26.6875 18.5781C26.8125 18.6719 26.875 18.7969 26.875 18.9531C26.875 19.1094 26.8125 19.2344 26.6875 19.3281L25.7031 20.3594L23.6406 18.2969L24.6719 17.3125C24.7656 17.1875 24.8906 17.125 25.0469 17.125ZM23.0781 18.8594L25.1406 20.9219L19.0469 27.0156H16.9844V24.9531L23.0781 18.8594ZM7 10.9844V9.01562H9.01562V7.98438C9.01562 7.45313 9.20312 7 9.57812 6.625C9.98438 6.21875 10.4531 6.01562 10.9844 6.01562H16.9844V13L19.5156 11.5L22 13V6.01562H22.9844C23.5156 6.01562 23.9844 6.21875 24.3906 6.625C24.7969 7.03125 25 7.48437 25 7.98438V13.9844L15.0156 24.0156V25.9844H10.9844C10.4844 25.9844 10.0312 25.7812 9.625 25.375C9.21875 24.9688 9.01562 24.5156 9.01562 24.0156V22.9844H7V21.0156H9.01562V16.9844H7V15.0156H9.01562V10.9844H7ZM9.01562 10.9844H10.9844V9.01562H9.01562V10.9844ZM9.01562 15.0156V16.9844H10.9844V15.0156H9.01562ZM9.01562 21.0156V22.9844H10.9844V21.0156H9.01562Z" fill="#10A1C1"/>
</svg>
