<svg width="80" height="102" viewBox="0 0 80 102" fill="none" xmlns="http://www.w3.org/2000/svg">
<path d="M71.8519 92H8.14815C5.98787 91.9975 3.91678 91.1299 2.38923 89.5875C0.861687 88.045 0.00244024 85.9537 0 83.7724V8.22764C0.00244024 6.04629 0.861687 3.95499 2.38923 2.41254C3.91678 0.870094 5.98787 0.00246405 8.14815 0H67.414L80 10.1297V83.7724C79.9976 85.9537 79.1383 88.045 77.6108 89.5875C76.0832 91.1299 74.0121 91.9975 71.8519 92Z" fill="#E6E6E6"/>
<path d="M7.85574 2C6.30324 2.00177 4.81482 2.62484 3.71704 3.73253C2.61925 4.84022 2.00175 6.34206 2 7.90857V84.0914C2.00175 85.6579 2.61925 87.1598 3.71704 88.2675C4.81482 89.3752 6.30324 89.9982 7.85574 90H72.1443C73.6968 89.9982 75.1852 89.3752 76.283 88.2675C77.3807 87.1598 77.9983 85.6579 78 84.0914V10.9774L66.8377 2H7.85574Z" fill="white"/>
<path d="M40 78C33.3726 78 28 83.3726 28 90C28 96.6274 33.3726 102 40 102C46.6274 102 52 96.6274 52 90C52 83.3726 46.6274 78 40 78Z" fill="#F92F57"/>
<path d="M33.2078 93.3379C33.093 93.456 33.7445 94.318 34.6625 95.2629C35.5805 96.2078 36.4186 96.879 36.5335 96.7608L46.3431 86.6641C46.4729 86.5614 45.8357 85.7103 44.9196 84.7635C44.4118 84.1096 43.7631 83.5863 43.0249 83.2348L33.2084 93.3385L33.2078 93.3379Z" fill="white"/>
<path d="M36.956 83.2389C36.8411 83.1207 36.0036 83.7913 35.0856 84.7362C34.1677 85.681 33.5155 86.5437 33.6303 86.6619L43.44 96.7585C43.5398 96.8921 44.3667 96.2363 45.2866 95.2934C45.9219 94.7707 46.4303 94.103 46.7718 93.3433L36.9553 83.2396L36.956 83.2389Z" fill="white"/>
<path d="M59.4615 24.0998H30.458C30.2799 24.0998 30.1034 24.0647 29.9388 23.9965C29.7742 23.9283 29.6246 23.8284 29.4986 23.7024C29.3726 23.5764 29.2726 23.4268 29.2045 23.2622C29.1363 23.0976 29.1012 22.9211 29.1012 22.7429C29.1012 22.5647 29.1363 22.3883 29.2045 22.2237C29.2726 22.0591 29.3726 21.9095 29.4986 21.7835C29.6246 21.6575 29.7742 21.5575 29.9388 21.4893C30.1034 21.4211 30.2799 21.386 30.458 21.386H59.4615C59.6396 21.386 59.8161 21.4211 59.9807 21.4893C60.1453 21.5575 60.2949 21.6575 60.4209 21.7835C60.5469 21.9095 60.6469 22.0591 60.7151 22.2237C60.7832 22.3883 60.8183 22.5647 60.8183 22.7429C60.8183 22.9211 60.7832 23.0976 60.7151 23.2622C60.6469 23.4268 60.5469 23.5764 60.4209 23.7024C60.2949 23.8284 60.1453 23.9283 59.9807 23.9965C59.8161 24.0647 59.6396 24.0998 59.4615 24.0998Z" fill="#CCCCCC"/>
<path d="M65.0586 28.6793H30.458C30.0982 28.6793 29.7531 28.5363 29.4986 28.2819C29.2441 28.0274 29.1012 27.6823 29.1012 27.3224C29.1012 26.9625 29.2441 26.6174 29.4986 26.3629C29.7531 26.1085 30.0982 25.9655 30.458 25.9655H65.0586C65.4185 25.9655 65.7636 26.1085 66.0181 26.3629C66.2725 26.6174 66.4155 26.9625 66.4155 27.3224C66.4155 27.6823 66.2725 28.0274 66.0181 28.2819C65.7636 28.5363 65.4185 28.6793 65.0586 28.6793Z" fill="#CCCCCC"/>
<path d="M59.4615 44.6227H30.458C30.0982 44.6227 29.7531 44.4797 29.4986 44.2253C29.2441 43.9708 29.1012 43.6257 29.1012 43.2658C29.1012 42.9059 29.2441 42.5608 29.4986 42.3064C29.7531 42.0519 30.0982 41.9089 30.458 41.9089H59.4615C59.8213 41.9089 60.1665 42.0519 60.4209 42.3064C60.6754 42.5608 60.8183 42.9059 60.8183 43.2658C60.8183 43.6257 60.6754 43.9708 60.4209 44.2253C60.1665 44.4797 59.8213 44.6227 59.4615 44.6227Z" fill="#CCCCCC"/>
<path d="M65.0586 49.2022H30.458C30.0982 49.2022 29.7531 49.0592 29.4986 48.8047C29.2441 48.5503 29.1012 48.2052 29.1012 47.8453C29.1012 47.4854 29.2441 47.1403 29.4986 46.8858C29.7531 46.6314 30.0982 46.4884 30.458 46.4884H65.0586C65.4185 46.4884 65.7636 46.6314 66.0181 46.8858C66.2725 47.1403 66.4155 47.4854 66.4155 47.8453C66.4155 48.2052 66.2725 48.5503 66.0181 48.8047C65.7636 49.0592 65.4185 49.2022 65.0586 49.2022Z" fill="#CCCCCC"/>
<path d="M59.4615 65.1456H30.458C30.0982 65.1456 29.7531 65.0026 29.4986 64.7482C29.2441 64.4937 29.1012 64.1486 29.1012 63.7887C29.1012 63.4288 29.2441 63.0837 29.4986 62.8292C29.7531 62.5748 30.0982 62.4318 30.458 62.4318H59.4615C59.8213 62.4318 60.1665 62.5748 60.4209 62.8292C60.6754 63.0837 60.8183 63.4288 60.8183 63.7887C60.8183 64.1486 60.6754 64.4937 60.4209 64.7482C60.1665 65.0026 59.8213 65.1456 59.4615 65.1456Z" fill="#CCCCCC"/>
<path d="M65.0586 69.7251H30.458C30.0982 69.7251 29.7531 69.5821 29.4986 69.3276C29.2441 69.0732 29.1012 68.728 29.1012 68.3682C29.1012 68.0083 29.2441 67.6632 29.4986 67.4087C29.7531 67.1542 30.0982 67.0113 30.458 67.0113H65.0586C65.4185 67.0113 65.7636 67.1542 66.0181 67.4087C66.2725 67.6632 66.4155 68.0083 66.4155 68.3682C66.4155 68.728 66.2725 69.0732 66.0181 69.3276C65.7636 69.5821 65.4185 69.7251 65.0586 69.7251Z" fill="#CCCCCC"/>
<path d="M18.3803 29.8286C21.029 29.8286 23.1762 27.6814 23.1762 25.0327C23.1762 22.384 21.029 20.2369 18.3803 20.2369C15.7316 20.2369 13.5845 22.384 13.5845 25.0327C13.5845 27.6814 15.7316 29.8286 18.3803 29.8286Z" fill="#FF7755"/>
<path d="M17.9051 26.8621C17.7972 26.8623 17.6922 26.8274 17.6058 26.7627L17.6005 26.7587L16.4734 25.8965C16.3681 25.8156 16.2992 25.6962 16.2819 25.5646C16.2646 25.433 16.3002 25.2999 16.381 25.1945C16.4618 25.0891 16.5811 25.0202 16.7127 25.0027C16.8443 24.9853 16.9774 25.0208 17.0829 25.1015L17.8129 25.6613L19.538 23.4107C19.578 23.3585 19.6279 23.3147 19.6848 23.2818C19.7418 23.2489 19.8046 23.2276 19.8698 23.219C19.935 23.2104 20.0012 23.2147 20.0647 23.2317C20.1283 23.2487 20.1878 23.278 20.24 23.318L20.2401 23.3181L20.2294 23.333L20.2404 23.3181C20.3457 23.399 20.4145 23.5184 20.4319 23.65C20.4493 23.7816 20.4137 23.9148 20.333 24.0202L18.3039 26.6662C18.257 26.7272 18.1966 26.7765 18.1275 26.8104C18.0584 26.8443 17.9825 26.8618 17.9055 26.8615L17.9051 26.8621Z" fill="white"/>
<path d="M18.8741 50.3514C21.5228 50.3514 23.67 48.2043 23.67 45.5556C23.67 42.9069 21.5228 40.7598 18.8741 40.7598C16.2254 40.7598 14.0783 42.9069 14.0783 45.5556C14.0783 48.2043 16.2254 50.3514 18.8741 50.3514Z" fill="#CCCCCC"/>
<path d="M18.3803 70.8742C21.029 70.8742 23.1762 68.727 23.1762 66.0784C23.1762 63.4297 21.029 61.2825 18.3803 61.2825C15.7316 61.2825 13.5845 63.4297 13.5845 66.0784C13.5845 68.727 15.7316 70.8742 18.3803 70.8742Z" fill="#CCCCCC"/>
<path d="M79.755 10.3547H69.896C69.1762 10.3547 68.486 10.0688 67.9771 9.55984C67.4681 9.05091 67.1822 8.36065 67.1822 7.64092V0.359189C67.1822 0.327309 67.1912 0.296071 67.2081 0.269064C67.2251 0.242057 67.2493 0.22037 67.278 0.206492C67.3067 0.192613 67.3387 0.187104 67.3704 0.190596C67.4021 0.194089 67.4322 0.206441 67.4571 0.226238L79.8603 10.0521C79.8879 10.074 79.908 10.1039 79.9179 10.1377C79.9277 10.1715 79.9268 10.2076 79.9152 10.2408C79.9036 10.2741 79.882 10.3029 79.8533 10.3233C79.8246 10.3437 79.7902 10.3547 79.755 10.3547Z" fill="#E6E6E6"/>
</svg>
