<svg width="80" height="92" viewBox="0 0 80 92" fill="none" xmlns="http://www.w3.org/2000/svg">
<path d="M71.8519 92H8.14815C5.98787 91.9975 3.91678 91.1299 2.38923 89.5875C0.861687 88.045 0.00244024 85.9537 0 83.7724V8.22764C0.00244024 6.04629 0.861687 3.95499 2.38923 2.41254C3.91678 0.870094 5.98787 0.00246405 8.14815 0H67.414L80 10.1297V83.7724C79.9976 85.9537 79.1383 88.045 77.6108 89.5875C76.0832 91.1299 74.0121 91.9975 71.8519 92V92Z" fill="#E6E6E6"/>
<path d="M7.85574 2C6.30324 2.00177 4.81482 2.62484 3.71704 3.73253C2.61925 4.84022 2.00175 6.34206 2 7.90857V84.0914C2.00175 85.6579 2.61925 87.1598 3.71704 88.2675C4.81482 89.3752 6.30324 89.9982 7.85574 90H72.1443C73.6968 89.9982 75.1852 89.3752 76.283 88.2675C77.3807 87.1598 77.9983 85.6579 78 84.0914V10.9774L66.8377 2H7.85574Z" fill="white"/>
<path d="M59.4614 24.0998H30.458C30.2798 24.0998 30.1033 24.0647 29.9387 23.9965C29.7741 23.9283 29.6245 23.8284 29.4985 23.7024C29.3725 23.5764 29.2726 23.4268 29.2044 23.2622C29.1362 23.0976 29.1011 22.9211 29.1011 22.7429C29.1011 22.5647 29.1362 22.3883 29.2044 22.2237C29.2726 22.0591 29.3725 21.9095 29.4985 21.7835C29.6245 21.6575 29.7741 21.5575 29.9387 21.4893C30.1033 21.4211 30.2798 21.386 30.458 21.386H59.4614C59.6396 21.386 59.816 21.4211 59.9806 21.4893C60.1453 21.5575 60.2948 21.6575 60.4208 21.7835C60.5468 21.9095 60.6468 22.0591 60.715 22.2237C60.7832 22.3883 60.8183 22.5647 60.8183 22.7429C60.8183 22.9211 60.7832 23.0976 60.715 23.2622C60.6468 23.4268 60.5468 23.5764 60.4208 23.7024C60.2948 23.8284 60.1453 23.9283 59.9806 23.9965C59.816 24.0647 59.6396 24.0998 59.4614 24.0998V24.0998Z" fill="#CCCCCC"/>
<path d="M65.0585 28.6793H30.458C30.0981 28.6793 29.753 28.5363 29.4985 28.2819C29.244 28.0274 29.1011 27.6823 29.1011 27.3224C29.1011 26.9625 29.244 26.6174 29.4985 26.3629C29.753 26.1085 30.0981 25.9655 30.458 25.9655H65.0585C65.4184 25.9655 65.7635 26.1085 66.018 26.3629C66.2724 26.6174 66.4154 26.9625 66.4154 27.3224C66.4154 27.6823 66.2724 28.0274 66.018 28.2819C65.7635 28.5363 65.4184 28.6793 65.0585 28.6793Z" fill="#CCCCCC"/>
<path d="M59.4614 44.6227H30.458C30.0981 44.6227 29.753 44.4797 29.4985 44.2253C29.244 43.9708 29.1011 43.6257 29.1011 43.2658C29.1011 42.9059 29.244 42.5608 29.4985 42.3064C29.753 42.0519 30.0981 41.9089 30.458 41.9089H59.4614C59.8212 41.9089 60.1664 42.0519 60.4208 42.3064C60.6753 42.5608 60.8183 42.9059 60.8183 43.2658C60.8183 43.6257 60.6753 43.9708 60.4208 44.2253C60.1664 44.4797 59.8212 44.6227 59.4614 44.6227Z" fill="#CCCCCC"/>
<path d="M65.0585 49.2022H30.458C30.0981 49.2022 29.753 49.0592 29.4985 48.8047C29.244 48.5503 29.1011 48.2052 29.1011 47.8453C29.1011 47.4854 29.244 47.1403 29.4985 46.8858C29.753 46.6314 30.0981 46.4884 30.458 46.4884H65.0585C65.4184 46.4884 65.7635 46.6314 66.018 46.8858C66.2724 47.1403 66.4154 47.4854 66.4154 47.8453C66.4154 48.2052 66.2724 48.5503 66.018 48.8047C65.7635 49.0592 65.4184 49.2022 65.0585 49.2022Z" fill="#CCCCCC"/>
<path d="M59.4614 65.1456H30.458C30.0981 65.1456 29.753 65.0026 29.4985 64.7482C29.244 64.4937 29.1011 64.1486 29.1011 63.7887C29.1011 63.4288 29.244 63.0837 29.4985 62.8292C29.753 62.5748 30.0981 62.4318 30.458 62.4318H59.4614C59.8212 62.4318 60.1664 62.5748 60.4208 62.8292C60.6753 63.0837 60.8183 63.4288 60.8183 63.7887C60.8183 64.1486 60.6753 64.4937 60.4208 64.7482C60.1664 65.0026 59.8212 65.1456 59.4614 65.1456Z" fill="#CCCCCC"/>
<path d="M65.0585 69.7251H30.458C30.0981 69.7251 29.753 69.5821 29.4985 69.3276C29.244 69.0732 29.1011 68.728 29.1011 68.3682C29.1011 68.0083 29.244 67.6632 29.4985 67.4087C29.753 67.1542 30.0981 67.0113 30.458 67.0113H65.0585C65.4184 67.0113 65.7635 67.1542 66.018 67.4087C66.2724 67.6632 66.4154 68.0083 66.4154 68.3682C66.4154 68.728 66.2724 69.0732 66.018 69.3276C65.7635 69.5821 65.4184 69.7251 65.0585 69.7251V69.7251Z" fill="#CCCCCC"/>
<path d="M18.3803 29.8286C21.029 29.8286 23.1762 27.6814 23.1762 25.0327C23.1762 22.384 21.029 20.2369 18.3803 20.2369C15.7316 20.2369 13.5845 22.384 13.5845 25.0327C13.5845 27.6814 15.7316 29.8286 18.3803 29.8286Z" fill="#FF7755"/>
<path d="M17.905 26.8621C17.7972 26.8623 17.6921 26.8274 17.6058 26.7627L17.6005 26.7587L16.4734 25.8965C16.3681 25.8156 16.2992 25.6962 16.2819 25.5646C16.2645 25.433 16.3002 25.2999 16.381 25.1945C16.4617 25.0891 16.581 25.0202 16.7126 25.0027C16.8443 24.9853 16.9774 25.0208 17.0829 25.1015L17.8129 25.6613L19.538 23.4107C19.578 23.3585 19.6279 23.3147 19.6848 23.2818C19.7417 23.2489 19.8046 23.2276 19.8698 23.219C19.935 23.2104 20.0012 23.2147 20.0647 23.2317C20.1282 23.2487 20.1878 23.278 20.2399 23.318L20.2401 23.3181L20.2294 23.333L20.2404 23.3181C20.3456 23.399 20.4145 23.5184 20.4319 23.65C20.4492 23.7816 20.4137 23.9148 20.333 24.0202L18.3039 26.6662C18.2569 26.7272 18.1966 26.7765 18.1275 26.8104C18.0584 26.8443 17.9824 26.8618 17.9055 26.8615L17.905 26.8621Z" fill="white"/>
<path d="M18.8742 50.3514C21.5229 50.3514 23.67 48.2043 23.67 45.5556C23.67 42.9069 21.5229 40.7598 18.8742 40.7598C16.2255 40.7598 14.0784 42.9069 14.0784 45.5556C14.0784 48.2043 16.2255 50.3514 18.8742 50.3514Z" fill="#CCCCCC"/>
<path d="M18.3803 70.8742C21.029 70.8742 23.1762 68.727 23.1762 66.0784C23.1762 63.4297 21.029 61.2825 18.3803 61.2825C15.7316 61.2825 13.5845 63.4297 13.5845 66.0784C13.5845 68.727 15.7316 70.8742 18.3803 70.8742Z" fill="#CCCCCC"/>
<path d="M79.7549 10.3547H69.8959C69.1762 10.3547 68.4859 10.0688 67.977 9.55984C67.468 9.05091 67.1821 8.36065 67.1821 7.64092V0.359189C67.1821 0.327309 67.1911 0.296071 67.2081 0.269064C67.225 0.242057 67.2492 0.22037 67.2779 0.206492C67.3066 0.192613 67.3386 0.187104 67.3703 0.190596C67.402 0.194089 67.4321 0.206441 67.4571 0.226238L79.8602 10.0521C79.8878 10.074 79.9079 10.1039 79.9178 10.1377C79.9276 10.1715 79.9267 10.2076 79.9151 10.2408C79.9035 10.2741 79.8819 10.3029 79.8532 10.3233C79.8245 10.3437 79.7901 10.3547 79.7549 10.3547Z" fill="#E6E6E6"/>
</svg>
