<?xml version="1.0" standalone="no"?>
<!DOCTYPE svg PUBLIC "-//W3C//DTD SVG 20010904//EN"
 "http://www.w3.org/TR/2001/REC-SVG-20010904/DTD/svg10.dtd">
<svg version="1.0" xmlns="http://www.w3.org/2000/svg"
 width="1184.000000pt" height="1184.000000pt" viewBox="0 0 1184.000000 1184.000000"
 preserveAspectRatio="xMidYMid meet">
<metadata>
Created by potrace 1.14, written by Peter Selinger 2001-2017
</metadata>
<g transform="translate(0.000000,1184.000000) scale(0.100000,-0.100000)"
fill="#000000" stroke="none">
<path d="M6494 11826 c-50 -16 -144 -66 -144 -78 0 -4 -4 -8 -8 -8 -5 0 -706
-695 -1558 -1545 -852 -850 -1584 -1580 -1626 -1622 -43 -41 -78 -78 -78 -82
-1 -3 -19 -19 -40 -36 -21 -16 -39 -36 -40 -42 0 -7 -7 -13 -15 -13 -8 0 -15
-4 -15 -8 0 -5 -52 -60 -115 -123 -64 -63 -499 -497 -968 -964 -706 -704 -857
-860 -880 -905 -64 -131 -60 -277 11 -400 15 -25 261 -278 574 -591 302 -300
548 -549 548 -552 0 -9 -672 -677 -681 -677 -5 0 -9 -3 -9 -8 0 -4 -49 -57
-109 -118 -104 -107 -156 -176 -167 -226 -3 -12 -8 -36 -12 -53 -10 -48 -5
-176 8 -192 2 -2 3 -6 4 -10 8 -35 29 -83 37 -83 5 0 9 -7 9 -15 0 -8 388
-402 863 -875 2584 -2578 2529 -2524 2587 -2552 137 -66 266 -64 390 5 62 35
294 264 2919 2885 883 881 1606 1602 1606 1602 4 0 195 195 196 199 1 3 49 51
108 106 58 55 147 143 196 196 50 53 93 97 96 98 3 0 55 51 115 111 249 253
460 469 472 484 27 34 63 130 68 184 4 32 7 59 7 62 3 26 -21 117 -44 168 -27
56 -83 116 -585 618 l-556 557 277 275 c153 152 292 299 310 326 50 76 69 153
62 251 -8 115 -45 184 -160 301 -49 50 -93 98 -98 105 -5 8 -9 12 -9 9 0 -3
-705 698 -1567 1558 -1645 1640 -1627 1622 -1642 1622 -5 0 -11 4 -13 8 -1 4
-28 18 -58 31 -66 28 -202 37 -266 17z"/>
</g>
</svg>
