<svg width="245" height="264" viewBox="0 0 245 264" fill="none" xmlns="http://www.w3.org/2000/svg">
<path d="M22.6508 231.14L18.8108 220.04H15.8108L20.9308 234H24.3308L29.4508 220.04H26.4708L22.6508 231.14ZM41.8595 228.46C41.8595 224.96 39.3595 222.74 36.1595 222.74C32.9595 222.74 30.4595 224.96 30.4595 228.46C30.4595 231.94 32.8795 234.18 36.0795 234.18C39.2995 234.18 41.8595 231.94 41.8595 228.46ZM33.2995 228.46C33.2995 226.24 34.6395 225.18 36.1195 225.18C37.5995 225.18 38.9795 226.24 38.9795 228.46C38.9795 230.66 37.5595 231.74 36.0795 231.74C34.5795 231.74 33.2995 230.66 33.2995 228.46ZM43.2234 228.46C43.2234 231.94 45.5034 234.18 48.7034 234.18C51.4634 234.18 53.3234 232.62 53.9234 230.26H50.9034C50.5634 231.26 49.8434 231.78 48.6834 231.78C47.1234 231.78 46.0834 230.62 46.0834 228.46C46.0834 226.3 47.1234 225.12 48.6834 225.12C49.8434 225.12 50.5834 225.72 50.9034 226.66H53.9234C53.3234 224.18 51.4634 222.74 48.7034 222.74C45.5034 222.74 43.2234 224.98 43.2234 228.46ZM60.7647 225.04C62.2047 225.04 63.3647 225.96 63.4047 227.42H58.1447C58.3647 225.9 59.4247 225.04 60.7647 225.04ZM66.0247 230.52H63.0047C62.6447 231.26 61.9847 231.86 60.7847 231.86C59.3847 231.86 58.2647 230.94 58.1247 229.3H66.2247C66.2847 228.94 66.3047 228.58 66.3047 228.22C66.3047 224.92 64.0447 222.74 60.8447 222.74C57.5647 222.74 55.2847 224.96 55.2847 228.46C55.2847 231.94 57.6247 234.18 60.8447 234.18C63.5847 234.18 65.4247 232.56 66.0247 230.52ZM63.7647 220.06L60.8047 218.44L57.8247 220.06V222.1L60.8047 220.42L63.7647 222.1V220.06ZM80.9341 234H83.7341V227.5C83.7341 224.44 81.8941 222.76 79.3141 222.76C77.8941 222.76 76.6941 223.36 75.9741 224.3V222.92H73.1741V234H75.9741V227.88C75.9741 226.1 76.9541 225.14 78.4741 225.14C79.9541 225.14 80.9341 226.1 80.9341 227.88V234ZM85.7067 228.42C85.7067 231.88 87.9467 234.18 90.7467 234.18C92.5067 234.18 93.7667 233.34 94.4267 232.38V234H97.2467V222.92H94.4267V224.5C93.7667 223.58 92.5467 222.74 90.7667 222.74C87.9467 222.74 85.7067 224.96 85.7067 228.42ZM94.4267 228.46C94.4267 230.56 93.0267 231.72 91.4867 231.72C89.9867 231.72 88.5667 230.52 88.5667 228.42C88.5667 226.32 89.9867 225.2 91.4867 225.2C93.0267 225.2 94.4267 226.36 94.4267 228.46ZM88.2667 221.86H89.7467C89.8467 221.26 90.1667 220.98 90.6267 220.98C91.4267 220.98 91.9467 221.88 93.0867 221.88C94.3667 221.88 95.3067 221.08 95.5667 219.26H94.0667C93.9867 219.86 93.6667 220.12 93.2067 220.12C92.4067 220.12 91.8867 219.24 90.7467 219.24C89.4667 219.24 88.5267 220.04 88.2667 221.86ZM110.711 228.46C110.711 224.96 108.211 222.74 105.011 222.74C101.811 222.74 99.3114 224.96 99.3114 228.46C99.3114 231.94 101.731 234.18 104.931 234.18C108.151 234.18 110.711 231.94 110.711 228.46ZM102.151 228.46C102.151 226.24 103.491 225.18 104.971 225.18C106.451 225.18 107.831 226.24 107.831 228.46C107.831 230.66 106.411 231.74 104.931 231.74C103.431 231.74 102.151 230.66 102.151 228.46ZM118.031 230.56C118.031 233.1 119.451 234 121.571 234H123.331V231.64H122.031C121.151 231.64 120.851 231.32 120.851 230.58V225.22H123.331V222.92H120.851V220.18H118.031V222.92H116.711V225.22H118.031V230.56ZM130.135 225.04C131.575 225.04 132.735 225.96 132.775 227.42H127.515C127.735 225.9 128.795 225.04 130.135 225.04ZM135.395 230.52H132.375C132.015 231.26 131.355 231.86 130.155 231.86C128.755 231.86 127.635 230.94 127.495 229.3H135.595C135.655 228.94 135.675 228.58 135.675 228.22C135.675 224.92 133.415 222.74 130.215 222.74C126.935 222.74 124.655 224.96 124.655 228.46C124.655 231.94 126.995 234.18 130.215 234.18C132.955 234.18 134.795 232.56 135.395 230.52ZM153.249 234H156.049V227.5C156.049 224.44 154.169 222.76 151.509 222.76C149.889 222.76 148.429 223.62 147.709 224.88C146.949 223.5 145.529 222.76 143.809 222.76C142.429 222.76 141.249 223.34 140.549 224.26V222.92H137.749V234H140.549V227.88C140.549 226.12 141.529 225.2 143.049 225.2C144.529 225.2 145.509 226.12 145.509 227.88V234H148.309V227.88C148.309 226.12 149.289 225.2 150.789 225.2C152.269 225.2 153.249 226.12 153.249 227.88V234ZM171.291 234H174.091V227.5C174.091 224.44 172.251 222.76 169.671 222.76C168.251 222.76 167.051 223.36 166.331 224.3V222.92H163.531V234H166.331V227.88C166.331 226.1 167.311 225.14 168.831 225.14C170.311 225.14 171.291 226.1 171.291 227.88V234ZM187.484 228.46C187.484 224.96 184.984 222.74 181.784 222.74C178.584 222.74 176.084 224.96 176.084 228.46C176.084 231.94 178.504 234.18 181.704 234.18C184.924 234.18 187.484 231.94 187.484 228.46ZM178.924 228.46C178.924 226.24 180.264 225.18 181.744 225.18C183.224 225.18 184.604 226.24 184.604 228.46C184.604 230.66 183.184 231.74 181.704 231.74C180.204 231.74 178.924 230.66 178.924 228.46ZM188.388 222.92L192.468 234H195.868L199.968 222.92H196.988L194.188 231.42L191.388 222.92H188.388ZM200.85 228.42C200.85 231.88 203.09 234.18 205.89 234.18C207.65 234.18 208.91 233.34 209.57 232.38V234H212.39V222.92H209.57V224.5C208.91 223.58 207.69 222.74 205.91 222.74C203.09 222.74 200.85 224.96 200.85 228.42ZM209.57 228.46C209.57 230.56 208.17 231.72 206.63 231.72C205.13 231.72 203.71 230.52 203.71 228.42C203.71 226.32 205.13 225.2 206.63 225.2C208.17 225.2 209.57 226.36 209.57 228.46ZM223.755 230.84C223.675 226.78 217.535 228.04 217.535 226.02C217.535 225.38 218.075 224.96 219.115 224.96C220.215 224.96 220.895 225.54 220.975 226.4H223.655C223.495 224.2 221.875 222.74 219.195 222.74C216.455 222.74 214.815 224.22 214.815 226.06C214.815 230.12 221.075 228.86 221.075 230.84C221.075 231.48 220.475 231.98 219.375 231.98C218.255 231.98 217.475 231.34 217.375 230.5H214.555C214.675 232.56 216.615 234.18 219.395 234.18C222.095 234.18 223.755 232.74 223.755 230.84ZM34.0031 248.52V246.92H31.2031V263.28H34.0031V256.42C34.6831 257.32 35.9231 258.18 37.6631 258.18C40.5031 258.18 42.7231 255.88 42.7231 252.42C42.7231 248.96 40.5031 246.74 37.6631 246.74C35.9431 246.74 34.6631 247.58 34.0031 248.52ZM39.8631 252.42C39.8631 254.52 38.4431 255.72 36.9231 255.72C35.4231 255.72 34.0031 254.56 34.0031 252.46C34.0031 250.36 35.4231 249.2 36.9231 249.2C38.4431 249.2 39.8631 250.32 39.8631 252.42ZM47.5878 252.48C47.5878 250.34 48.5878 249.7 50.2478 249.7H50.9878V246.76C49.4478 246.76 48.2878 247.5 47.5878 248.64V246.92H44.7878V258H47.5878V252.48ZM63.6038 252.46C63.6038 248.96 61.1038 246.74 57.9038 246.74C54.7038 246.74 52.2038 248.96 52.2038 252.46C52.2038 255.94 54.6238 258.18 57.8238 258.18C61.0438 258.18 63.6038 255.94 63.6038 252.46ZM55.0438 252.46C55.0438 250.24 56.3838 249.18 57.8638 249.18C59.3438 249.18 60.7238 250.24 60.7238 252.46C60.7238 254.66 59.3038 255.74 57.8238 255.74C56.3238 255.74 55.0438 254.66 55.0438 252.46ZM64.5077 246.92L68.5877 258H71.9877L76.0877 246.92H73.1077L70.3077 255.42L67.5077 246.92H64.5077ZM76.9703 252.42C76.9703 255.88 79.2103 258.18 82.0103 258.18C83.7703 258.18 85.0303 257.34 85.6903 256.38V258H88.5103V246.92H85.6903V248.5C85.0303 247.58 83.8103 246.74 82.0303 246.74C79.2103 246.74 76.9703 248.96 76.9703 252.42ZM85.6903 252.46C85.6903 254.56 84.2903 255.72 82.7503 255.72C81.2503 255.72 79.8303 254.52 79.8303 252.42C79.8303 250.32 81.2503 249.2 82.7503 249.2C84.2903 249.2 85.6903 250.36 85.6903 252.46ZM99.875 254.84C99.795 250.78 93.655 252.04 93.655 250.02C93.655 249.38 94.195 248.96 95.235 248.96C96.335 248.96 97.015 249.54 97.095 250.4H99.775C99.615 248.2 97.995 246.74 95.315 246.74C92.575 246.74 90.935 248.22 90.935 250.06C90.935 254.12 97.195 252.86 97.195 254.84C97.195 255.48 96.595 255.98 95.495 255.98C94.375 255.98 93.595 255.34 93.495 254.5H90.675C90.795 256.56 92.735 258.18 95.515 258.18C98.215 258.18 99.875 256.74 99.875 254.84ZM109.799 248.52V246.92H106.999V263.28H109.799V256.42C110.479 257.32 111.719 258.18 113.459 258.18C116.299 258.18 118.519 255.88 118.519 252.42C118.519 248.96 116.299 246.74 113.459 246.74C111.739 246.74 110.459 247.58 109.799 248.52ZM115.659 252.42C115.659 254.52 114.239 255.72 112.719 255.72C111.219 255.72 109.799 254.56 109.799 252.46C109.799 250.36 111.219 249.2 112.719 249.2C114.239 249.2 115.659 250.32 115.659 252.42ZM119.864 252.42C119.864 255.88 122.104 258.18 124.904 258.18C126.664 258.18 127.924 257.34 128.584 256.38V258H131.404V246.92H128.584V248.5C127.924 247.58 126.704 246.74 124.924 246.74C122.104 246.74 119.864 248.96 119.864 252.42ZM128.584 252.46C128.584 254.56 127.184 255.72 125.644 255.72C124.144 255.72 122.724 254.52 122.724 252.42C122.724 250.32 124.144 249.2 125.644 249.2C127.184 249.2 128.584 250.36 128.584 252.46ZM136.968 252.48C136.968 250.34 137.968 249.7 139.628 249.7H140.368V246.76C138.828 246.76 137.668 247.5 136.968 248.64V246.92H134.168V258H136.968V252.48ZM141.564 252.42C141.564 255.88 143.804 258.18 146.604 258.18C148.364 258.18 149.624 257.34 150.284 256.38V258H153.104V246.92H150.284V248.5C149.624 247.58 148.404 246.74 146.624 246.74C143.804 246.74 141.564 248.96 141.564 252.42ZM150.284 252.46C150.284 254.56 148.884 255.72 147.344 255.72C145.844 255.72 144.424 254.52 144.424 252.42C144.424 250.32 145.844 249.2 147.344 249.2C148.884 249.2 150.284 250.36 150.284 252.46ZM160.965 258H163.805V249.22H165.745V246.92H163.805V246.46C163.805 245.22 164.265 244.78 165.625 244.82V242.46C162.505 242.38 160.965 243.64 160.965 246.36V246.92H159.705V249.22H160.965V258ZM166.869 252.42C166.869 255.88 169.109 258.18 171.909 258.18C173.669 258.18 174.929 257.34 175.589 256.38V258H178.409V246.92H175.589V248.5C174.929 247.58 173.709 246.74 171.929 246.74C169.109 246.74 166.869 248.96 166.869 252.42ZM175.589 252.46C175.589 254.56 174.189 255.72 172.649 255.72C171.149 255.72 169.729 254.52 169.729 252.42C169.729 250.32 171.149 249.2 172.649 249.2C174.189 249.2 175.589 250.36 175.589 252.46ZM188.614 246.92H180.574V249.22H185.394L180.554 255.74V258H188.674V255.7H183.734L188.614 249.18V246.92ZM195.632 249.04C197.072 249.04 198.232 249.96 198.272 251.42H193.012C193.232 249.9 194.292 249.04 195.632 249.04ZM200.892 254.52H197.872C197.512 255.26 196.852 255.86 195.652 255.86C194.252 255.86 193.132 254.94 192.992 253.3H201.092C201.152 252.94 201.172 252.58 201.172 252.22C201.172 248.92 198.912 246.74 195.712 246.74C192.432 246.74 190.152 248.96 190.152 252.46C190.152 255.94 192.492 258.18 195.712 258.18C198.452 258.18 200.292 256.56 200.892 254.52ZM206.046 252.48C206.046 250.34 207.046 249.7 208.706 249.7H209.446V246.76C207.906 246.76 206.746 247.5 206.046 248.64V246.92H203.246V258H206.046V252.48ZM214.302 256.5C214.302 255.58 213.582 254.86 212.602 254.86C211.582 254.86 210.862 255.58 210.862 256.5C210.862 257.42 211.582 258.14 212.602 258.14C213.582 258.14 214.302 257.42 214.302 256.5Z" fill="black" fill-opacity="0.7"/>
<g opacity="0.8">
<rect x="55" y="29" width="135" height="161" rx="11" stroke="#3F3D56" stroke-width="2"/>
<path d="M122.546 38.5797C121.985 38.5797 121.437 38.4134 120.971 38.1018C120.504 37.7903 120.141 37.3475 119.926 36.8294C119.712 36.3113 119.656 35.7413 119.765 35.1913C119.874 34.6413 120.144 34.1361 120.541 33.7395C120.937 33.343 121.443 33.073 121.993 32.9635C122.543 32.8541 123.113 32.9103 123.631 33.1249C124.149 33.3394 124.592 33.7028 124.903 34.1691C125.215 34.6353 125.381 35.1835 125.381 35.7443C125.38 36.496 125.081 37.2167 124.55 37.7482C124.018 38.2798 123.297 38.5788 122.546 38.5797ZM122.546 33.5644C122.115 33.5644 121.693 33.6923 121.335 33.9318C120.976 34.1714 120.697 34.5118 120.532 34.9102C120.367 35.3085 120.324 35.7468 120.408 36.1697C120.492 36.5926 120.699 36.981 121.004 37.2859C121.309 37.5907 121.698 37.7983 122.121 37.8824C122.543 37.9665 122.982 37.9234 123.38 37.7583C123.778 37.5933 124.119 37.3139 124.358 36.9554C124.598 36.5969 124.726 36.1755 124.726 35.7443C124.725 35.1664 124.495 34.6123 124.086 34.2036C123.678 33.7949 123.124 33.5651 122.546 33.5644Z" fill="#3F3D56"/>
<path d="M122.546 188.018C121.831 188.018 121.131 187.806 120.536 187.408C119.941 187.011 119.477 186.446 119.204 185.785C118.93 185.124 118.858 184.396 118.998 183.695C119.137 182.993 119.482 182.348 119.988 181.842C120.494 181.336 121.138 180.992 121.84 180.852C122.542 180.712 123.269 180.784 123.93 181.058C124.592 181.332 125.157 181.795 125.554 182.39C125.952 182.985 126.164 183.685 126.164 184.4C126.163 185.359 125.781 186.279 125.103 186.957C124.425 187.636 123.505 188.017 122.546 188.018ZM122.546 181.619C121.996 181.619 121.458 181.782 121.001 182.088C120.543 182.393 120.187 182.828 119.976 183.336C119.766 183.844 119.711 184.403 119.818 184.943C119.925 185.483 120.19 185.978 120.579 186.367C120.968 186.756 121.464 187.021 122.003 187.129C122.543 187.236 123.102 187.181 123.611 186.97C124.119 186.76 124.553 186.403 124.859 185.946C125.165 185.488 125.328 184.95 125.328 184.4C125.327 183.663 125.033 182.956 124.512 182.434C123.991 181.913 123.283 181.62 122.546 181.619Z" fill="#3F3D56"/>
<rect x="63.5" y="42.5" width="119" height="133" fill="white" stroke="#3F3D56"/>
<path d="M163.861 72.6932H128.131C127.373 72.6932 126.646 72.3921 126.11 71.856C125.574 71.32 125.272 70.5929 125.272 69.8348C125.272 69.0767 125.574 68.3497 126.11 67.8136C126.646 67.2776 127.373 66.9764 128.131 66.9764H163.861C164.619 66.9764 165.346 67.2776 165.882 67.8136C166.418 68.3497 166.719 69.0767 166.719 69.8348C166.719 70.5929 166.418 71.32 165.882 71.856C165.346 72.3921 164.619 72.6932 163.861 72.6932Z" fill="#3F3D56"/>
<path d="M163.861 87.6998H128.131C127.373 87.6998 126.646 87.3986 126.11 86.8626C125.574 86.3265 125.272 85.5995 125.272 84.8414C125.272 84.0833 125.574 83.3563 126.11 82.8202C126.646 82.2842 127.373 81.983 128.131 81.983H163.861C164.619 81.983 165.346 82.2842 165.882 82.8202C166.418 83.3563 166.719 84.0833 166.719 84.8414C166.719 85.5995 166.418 86.3265 165.882 86.8626C165.346 87.3986 164.619 87.6998 163.861 87.6998Z" fill="#3F3D56"/>
<path d="M112.797 94.2445H86.6859C85.8334 94.2436 85.016 93.9045 84.4131 93.3016C83.8103 92.6988 83.4712 91.8814 83.4702 91.0288V60.2157C83.4712 59.3631 83.8103 58.5458 84.4131 57.9429C85.016 57.3401 85.8334 57.0009 86.6859 57H112.797C113.65 57.0009 114.467 57.3401 115.07 57.9429C115.673 58.5458 116.012 59.3631 116.013 60.2157V91.0288C116.012 91.8814 115.673 92.6988 115.07 93.3016C114.467 93.9045 113.65 94.2436 112.797 94.2445Z" fill="#F2945B"/>
<path d="M163.613 118.427H82.8633C82.4875 118.428 82.1153 118.355 81.7679 118.211C81.4206 118.068 81.1049 117.857 80.8389 117.592C80.573 117.326 80.362 117.011 80.218 116.664C80.0741 116.317 80 115.945 80 115.569C80 115.193 80.0741 114.821 80.218 114.474C80.362 114.127 80.573 113.812 80.8389 113.546C81.1049 113.281 81.4206 113.07 81.7679 112.927C82.1153 112.783 82.4875 112.71 82.8633 112.711H163.613C164.37 112.712 165.096 113.014 165.631 113.55C166.166 114.085 166.466 114.812 166.466 115.569C166.466 116.326 166.166 117.053 165.631 117.588C165.096 118.124 164.37 118.426 163.613 118.427Z" fill="#CCCCCC"/>
<path d="M163.613 133.434H82.8633C82.4875 133.435 82.1153 133.361 81.7679 133.218C81.4206 133.074 81.1049 132.864 80.8389 132.598C80.573 132.333 80.362 132.018 80.218 131.671C80.0741 131.323 80 130.951 80 130.576C80 130.2 80.0741 129.828 80.218 129.481C80.362 129.133 80.573 128.818 80.8389 128.553C81.1049 128.287 81.4206 128.077 81.7679 127.933C82.1153 127.79 82.4875 127.717 82.8633 127.717H163.613C164.371 127.717 165.098 128.018 165.634 128.554C166.17 129.09 166.471 129.817 166.471 130.576C166.471 131.334 166.17 132.061 165.634 132.597C165.098 133.133 164.371 133.434 163.613 133.434Z" fill="#CCCCCC"/>
<path d="M163.613 148.44H82.8633C82.4875 148.441 82.1153 148.368 81.7679 148.224C81.4206 148.081 81.1049 147.87 80.8389 147.605C80.573 147.34 80.362 147.024 80.218 146.677C80.0741 146.33 80 145.958 80 145.582C80 145.206 80.0741 144.834 80.218 144.487C80.362 144.14 80.573 143.825 80.8389 143.559C81.1049 143.294 81.4206 143.083 81.7679 142.94C82.1153 142.797 82.4875 142.723 82.8633 142.724H163.613C164.371 142.724 165.098 143.025 165.634 143.561C166.17 144.097 166.471 144.824 166.471 145.582C166.471 146.34 166.17 147.067 165.634 147.603C165.098 148.139 164.371 148.44 163.613 148.44Z" fill="#CCCCCC"/>
<path d="M163.613 163.447H82.8633C82.4875 163.448 82.1153 163.374 81.7679 163.231C81.4206 163.087 81.1049 162.877 80.8389 162.612C80.573 162.346 80.362 162.031 80.218 161.684C80.0741 161.336 80 160.964 80 160.589C80 160.213 80.0741 159.841 80.218 159.494C80.362 159.146 80.573 158.831 80.8389 158.566C81.1049 158.3 81.4206 158.09 81.7679 157.946C82.1153 157.803 82.4875 157.73 82.8633 157.73H163.613C164.371 157.73 165.098 158.031 165.634 158.567C166.17 159.103 166.471 159.83 166.471 160.589C166.471 161.347 166.17 162.074 165.634 162.61C165.098 163.146 164.371 163.447 163.613 163.447Z" fill="#CCCCCC"/>
</g>
<path d="M191 56C206.464 56 219 43.464 219 28C219 12.536 206.464 0 191 0C175.536 0 163 12.536 163 28C163 43.464 175.536 56 191 56Z" fill="#F5A879"/>
<path d="M190.622 46.9189C192.502 46.9189 194.027 45.3943 194.027 43.5135C194.027 41.6328 192.502 40.1081 190.622 40.1081C188.741 40.1081 187.216 41.6328 187.216 43.5135C187.216 45.3943 188.741 46.9189 190.622 46.9189Z" fill="white"/>
<path d="M189.796 9.08135C187.325 9.1063 184.961 10.1119 183.208 11.8842C181.454 13.6564 180.449 16.0554 180.406 18.5706C180.406 18.6187 180.405 18.9573 180.405 19.4C180.405 20.0492 180.659 20.6718 181.11 21.1309C181.56 21.5899 182.172 21.8479 182.81 21.8479C183.448 21.8478 184.06 21.5896 184.511 21.1301C184.962 20.6706 185.216 20.0475 185.216 19.3979V19.3963C185.215 19.0951 185.215 18.8866 185.215 18.8738C185.215 18.0679 185.421 17.2759 185.813 16.5755C186.204 15.8752 186.768 15.2908 187.449 14.8797C188.13 14.4686 188.905 14.2451 189.696 14.2311C190.488 14.217 191.269 14.413 191.964 14.7997C192.658 15.1864 193.242 15.7505 193.658 16.4365C194.073 17.1225 194.306 17.9068 194.333 18.7122C194.361 19.5176 194.182 20.3164 193.814 21.03C193.446 21.7437 192.902 22.3475 192.235 22.7822L192.236 22.7832C192.236 22.7832 188.814 25.0261 187.771 28.1029L187.771 28.1031C187.588 28.7334 187.495 29.3874 187.495 30.0448C187.495 30.3151 187.511 32.6795 187.541 34.5986C187.552 35.2608 187.818 35.8922 188.281 36.3566C188.745 36.821 189.37 37.0812 190.02 37.0811C190.346 37.0811 190.668 37.0158 190.969 36.8889C191.27 36.7621 191.543 36.5761 191.773 36.3417C192.004 36.1073 192.186 35.8291 192.311 35.5228C192.436 35.2166 192.5 34.8884 192.5 34.5569L192.5 34.5414C192.489 32.7839 192.483 30.7374 192.483 30.5889C192.483 28.6996 194.274 26.8172 195.744 25.5897C197.447 24.1862 198.643 22.2472 199.146 20.0768C199.254 19.6294 199.314 19.1713 199.324 18.7106C199.324 17.4461 199.08 16.1939 198.604 15.0256C198.129 13.8572 197.432 12.7957 196.554 11.9015C195.675 11.0073 194.632 10.298 193.485 9.81409C192.337 9.33016 191.107 9.08109 189.865 9.08109C189.842 9.08109 189.819 9.08118 189.796 9.08135Z" fill="white"/>
</svg>
