<svg width="256" height="104" viewBox="0 0 256 104" fill="none" xmlns="http://www.w3.org/2000/svg">
<path d="M122.961 48.3611C122.961 46.688 122.377 45.3983 121.209 44.492C120.058 43.5857 117.971 42.6708 114.947 41.7471C111.924 40.8234 109.519 39.7951 107.733 38.6623C104.314 36.4837 102.605 33.643 102.605 30.1399C102.605 27.0725 103.833 24.5454 106.29 22.5586C108.763 20.5718 111.967 19.5784 115.901 19.5784C118.512 19.5784 120.839 20.0664 122.883 21.0424C124.928 22.0183 126.534 23.4126 127.702 25.2251C128.87 27.0202 129.454 29.0158 129.454 31.2117H122.961C122.961 29.2249 122.342 27.6738 121.106 26.5584C119.886 25.4256 118.134 24.8591 115.849 24.8591C113.719 24.8591 112.062 25.321 110.876 26.2447C109.708 27.1684 109.124 28.4581 109.124 30.1137C109.124 31.508 109.76 32.6757 111.031 33.6168C112.302 34.5405 114.398 35.4468 117.318 36.3356C120.238 37.207 122.583 38.2091 124.352 39.342C126.121 40.4574 127.418 41.7471 128.243 43.211C129.067 44.6576 129.48 46.3568 129.48 48.3088C129.48 51.4807 128.277 54.0078 125.872 55.89C123.485 57.7549 120.238 58.6873 116.133 58.6873C113.419 58.6873 110.919 58.1818 108.635 57.171C106.367 56.1427 104.598 54.7311 103.327 52.936C102.073 51.1409 101.446 49.0495 101.446 46.6618H107.965C107.965 48.8229 108.669 50.496 110.078 51.6811C111.486 52.8662 113.504 53.4588 116.133 53.4588C118.4 53.4588 120.101 52.997 121.234 52.0733C122.385 51.1321 122.961 49.8947 122.961 48.3611Z" fill="black" fill-opacity="0.87"/>
<path d="M157.206 41.1719H141.798V52.8837H159.809V58.1644H135.279V20.1012H159.628V25.4343H141.798V35.9435H157.206V41.1719Z" fill="black" fill-opacity="0.87"/>
<path d="M178.981 43.4986H171.714V58.1644H165.196V20.1012H178.388C182.717 20.1012 186.058 21.0859 188.411 23.0553C190.764 25.0247 191.941 27.8742 191.941 31.6039C191.941 34.1484 191.331 36.2833 190.112 38.0087C188.909 39.7167 187.226 41.0325 185.061 41.9562L193.487 57.8246V58.1644H186.504L178.981 43.4986ZM171.714 38.1917H178.414C180.612 38.1917 182.33 37.634 183.567 36.5186C184.804 35.3858 185.422 33.8434 185.422 31.8914C185.422 29.8523 184.847 28.2751 183.696 27.1597C182.562 26.0443 180.862 25.4691 178.594 25.4343H171.714V38.1917Z" fill="black" fill-opacity="0.87"/>
<path d="M219.204 49.3022H204.672L201.631 58.1644H194.855L209.026 20.1012H214.875L229.072 58.1644H222.27L219.204 49.3022ZM206.501 43.9692H217.374L211.938 28.1792L206.501 43.9692Z" fill="black" fill-opacity="0.87"/>
<path d="M256 44.309C256 48.6835 255.021 52.1778 253.063 54.7921C251.104 57.3889 248.476 58.6873 245.178 58.6873C242.121 58.6873 239.673 57.6677 237.835 55.6286V69.0396H231.574V29.8785H237.345L237.603 32.7541C239.441 30.4884 241.94 29.3556 245.101 29.3556C248.502 29.3556 251.165 30.6453 253.088 33.2247C255.03 35.7866 256 39.3507 256 43.9169V44.309ZM249.765 43.76C249.765 40.9366 249.206 38.6971 248.09 37.0414C246.99 35.3858 245.41 34.5579 243.349 34.5579C240.789 34.5579 238.951 35.6298 237.835 37.7734V50.3217C238.969 52.5177 240.824 53.6157 243.4 53.6157C245.393 53.6157 246.947 52.8052 248.064 51.1844C249.198 49.5462 249.765 47.0714 249.765 43.76Z" fill="black" fill-opacity="0.87"/>
<path d="M48.3805 23.0542C49.769 21.6486 52.0201 21.6486 53.4085 23.0542L81.9587 51.9568C83.3471 53.3624 83.3471 55.6413 81.9587 57.0469L36.6195 102.946C35.231 104.351 32.9799 104.351 31.5915 102.946L3.04133 74.0432C1.65289 72.6376 1.65289 70.3587 3.04133 68.9531L48.3805 23.0542Z" fill="#09CA59"/>
<path d="M48.5584 23.2299C49.849 21.9234 51.9401 21.9234 53.2307 23.2299L81.7808 52.1325C83.0731 53.4407 83.0731 55.563 81.7808 56.8712L36.4416 102.77C35.151 104.077 33.0599 104.077 31.7693 102.77L3.21919 73.8675C1.92694 72.5593 1.92694 70.437 3.21919 69.1288L48.5584 23.2299Z" stroke="#11B15C" stroke-opacity="0.5" stroke-width="0.5"/>
<path d="M48.0933 23.05C49.4932 21.65 51.763 21.65 53.163 23.05L81.95 51.837C83.35 53.237 83.35 55.5068 81.95 56.9067L43.8568 95L10 61.1432L48.0933 23.05Z" fill="#11B15C"/>
<path d="M46.3805 1.05419C47.769 -0.351395 50.0201 -0.351398 51.4085 1.05419L79.9587 29.9568C81.3471 31.3624 81.3471 33.6413 79.9587 35.0469L34.6195 80.9458C33.231 82.3514 30.9799 82.3514 29.5915 80.9458L1.04133 52.0432C-0.347112 50.6376 -0.34711 48.3587 1.04133 46.9531L46.3805 1.05419Z" fill="#187ED4"/>
<path d="M46.5584 1.22988C47.849 -0.0766245 49.9401 -0.0766269 51.2307 1.22988L79.7808 30.1325C81.0731 31.4407 81.0731 33.563 79.7808 34.8712L34.4416 80.7701C33.151 82.0766 31.0599 82.0766 29.7693 80.7701L1.21919 51.8675C-0.0730643 50.5593 -0.0730626 48.437 1.21919 47.1288L46.5584 1.22988Z" stroke="#136DB9" stroke-opacity="0.5" stroke-width="0.5"/>
<g filter="url(#filter0_d)">
<path d="M47.75 17L68 37.25L61.25 44L41 23.75L47.75 17Z" fill="white"/>
</g>
<g filter="url(#filter1_d)">
<path d="M23.75 41L44 61.25L37.25 68L17 47.75L23.75 41Z" fill="white"/>
</g>
<g filter="url(#filter2_d)">
<path d="M30.7368 24L56 49.2632L49.2632 56L24 30.7368L30.7368 24Z" fill="white"/>
</g>
<path d="M112.44 78.6922H106.354V82.8245H113.497V85.3781H103.184V69.9506H113.476V72.5254H106.354V76.2021H112.44V78.6922Z" fill="#FF7755"/>
<path d="M121.38 82.21C121.38 81.8356 121.194 81.5424 120.82 81.3305C120.454 81.1115 119.862 80.9173 119.045 80.7477C116.326 80.1756 114.966 79.0171 114.966 77.2723C114.966 76.2551 115.385 75.4075 116.224 74.7293C117.069 74.0441 118.172 73.7015 119.531 73.7015C120.982 73.7015 122.141 74.0441 123.008 74.7293C123.881 75.4145 124.318 76.3046 124.318 77.3995H121.264C121.264 76.9615 121.123 76.6012 120.841 76.3187C120.56 76.0291 120.119 75.8843 119.521 75.8843C119.006 75.8843 118.608 76.0008 118.327 76.2339C118.045 76.467 117.904 76.7637 117.904 77.124C117.904 77.463 118.062 77.7385 118.379 77.9504C118.703 78.1553 119.246 78.3354 120.007 78.4908C120.768 78.6392 121.409 78.8087 121.93 78.9994C123.543 79.5928 124.35 80.6206 124.35 82.0828C124.35 83.1283 123.902 83.9759 123.008 84.6258C122.113 85.2686 120.958 85.59 119.542 85.59C118.584 85.59 117.731 85.4205 116.985 85.0814C116.245 84.7353 115.664 84.2655 115.241 83.6722C114.818 83.0717 114.607 82.4254 114.607 81.7331H117.502C117.531 82.2771 117.731 82.6938 118.105 82.9835C118.478 83.2731 118.978 83.4179 119.605 83.4179C120.19 83.4179 120.63 83.3084 120.926 83.0894C121.229 82.8634 121.38 82.5702 121.38 82.21Z" fill="#FF7755"/>
<path d="M130.014 71.095V73.9134H131.969V76.1598H130.014V81.8815C130.014 82.3053 130.095 82.6091 130.257 82.7927C130.419 82.9764 130.729 83.0682 131.187 83.0682C131.525 83.0682 131.825 83.0435 132.085 82.994V85.3145C131.487 85.4982 130.87 85.59 130.236 85.59C128.095 85.59 127.003 84.5057 126.96 82.3371V76.1598H125.291V73.9134H126.96V71.095H130.014Z" fill="#FF7755"/>
<path d="M140.55 84.2126C139.796 85.1309 138.754 85.59 137.422 85.59C136.197 85.59 135.26 85.2368 134.612 84.5304C133.97 83.8241 133.643 82.7892 133.629 81.4259V73.9134H136.683V81.3199C136.683 82.5137 137.225 83.1106 138.31 83.1106C139.345 83.1106 140.057 82.7503 140.444 82.0298V73.9134H143.509V85.3781H140.635L140.55 84.2126Z" fill="#FF7755"/>
<path d="M145.369 79.561C145.369 77.7738 145.767 76.3505 146.563 75.2909C147.366 74.2313 148.462 73.7015 149.85 73.7015C150.963 73.7015 151.882 74.1183 152.608 74.9518V69.103H155.672V85.3781H152.914L152.766 84.1596C152.005 85.1132 151.026 85.59 149.829 85.59C148.483 85.59 147.402 85.0602 146.584 84.0006C145.774 82.934 145.369 81.4541 145.369 79.561ZM148.423 79.7835C148.423 80.8572 148.61 81.6802 148.983 82.2523C149.357 82.8245 149.899 83.1106 150.61 83.1106C151.554 83.1106 152.22 82.7115 152.608 81.9133V77.3889C152.227 76.5907 151.569 76.1915 150.632 76.1915C149.159 76.1915 148.423 77.3889 148.423 79.7835Z" fill="#FF7755"/>
<path d="M164.697 85.3781C164.556 85.1026 164.454 84.76 164.39 84.3503C163.651 85.1768 162.689 85.59 161.506 85.59C160.386 85.59 159.456 85.2651 158.716 84.6152C157.983 83.9653 157.617 83.1459 157.617 82.157C157.617 80.942 158.064 80.0096 158.959 79.3597C159.861 78.7098 161.16 78.3813 162.858 78.3743H164.264V77.7173C164.264 77.1875 164.126 76.7637 163.851 76.4458C163.584 76.128 163.158 75.969 162.573 75.969C162.059 75.969 161.654 76.0926 161.358 76.3399C161.069 76.5871 160.924 76.9262 160.924 77.3571H157.871C157.871 76.6931 158.075 76.0785 158.483 75.5134C158.892 74.9483 159.47 74.5068 160.216 74.1889C160.963 73.864 161.801 73.7015 162.731 73.7015C164.14 73.7015 165.257 74.0583 166.081 74.7717C166.912 75.4781 167.328 76.4741 167.328 77.7597V82.7292C167.335 83.817 167.486 84.6399 167.782 85.198V85.3781H164.697ZM162.171 83.2483C162.622 83.2483 163.038 83.1495 163.418 82.9517C163.799 82.7468 164.08 82.4749 164.264 82.1358V80.165H163.122C161.594 80.165 160.78 80.6948 160.681 81.7543L160.671 81.9345C160.671 82.3159 160.805 82.6303 161.072 82.8775C161.34 83.1247 161.706 83.2483 162.171 83.2483Z" fill="#FF7755"/>
<path d="M172.517 73.9134L172.612 75.2379C173.429 74.2137 174.525 73.7015 175.898 73.7015C177.11 73.7015 178.012 74.0583 178.603 74.7717C179.195 75.4852 179.498 76.5518 179.512 77.9716V85.3781H176.458V78.0458C176.458 77.3959 176.317 76.9262 176.036 76.6366C175.754 76.3399 175.285 76.1915 174.63 76.1915C173.771 76.1915 173.126 76.5589 172.697 77.2935V85.3781H169.643V73.9134H172.517Z" fill="#FF7755"/>
<path d="M185.525 71.095V73.9134H187.48V76.1598H185.525V81.8815C185.525 82.3053 185.606 82.6091 185.768 82.7927C185.931 82.9764 186.24 83.0682 186.698 83.0682C187.036 83.0682 187.336 83.0435 187.597 82.994V85.3145C186.998 85.4982 186.381 85.59 185.747 85.59C183.606 85.59 182.514 84.5057 182.472 82.3371V76.1598H180.802V73.9134H182.472V71.095H185.525Z" fill="#FF7755"/>
<path d="M194.476 85.59C192.8 85.59 191.433 85.0744 190.376 84.043C189.327 83.0117 188.802 81.6378 188.802 79.9213V79.6246C188.802 78.4732 189.024 77.4454 189.468 76.5412C189.911 75.63 190.538 74.9306 191.349 74.4432C192.166 73.9488 193.096 73.7015 194.138 73.7015C195.702 73.7015 196.931 74.196 197.826 75.1849C198.728 76.1739 199.179 77.5761 199.179 79.3915V80.6418H191.898C191.997 81.3905 192.292 81.991 192.786 82.4431C193.286 82.8952 193.916 83.1212 194.677 83.1212C195.854 83.1212 196.773 82.6938 197.435 81.8391L198.935 83.5238C198.478 84.1737 197.858 84.6823 197.076 85.0496C196.294 85.4099 195.427 85.59 194.476 85.59ZM194.128 76.1809C193.522 76.1809 193.029 76.3858 192.648 76.7955C192.275 77.2052 192.035 77.7915 191.93 78.5544H196.178V78.3107C196.163 77.6326 195.98 77.1098 195.628 76.7425C195.276 76.3681 194.776 76.1809 194.128 76.1809Z" fill="#FF7755"/>
<path d="M207.147 82.21C207.147 81.8356 206.96 81.5424 206.587 81.3305C206.22 81.1115 205.629 80.9173 204.811 80.7477C202.092 80.1756 200.733 79.0171 200.733 77.2723C200.733 76.2551 201.152 75.4075 201.99 74.7293C202.835 74.0441 203.938 73.7015 205.297 73.7015C206.749 73.7015 207.907 74.0441 208.774 74.7293C209.647 75.4145 210.084 76.3046 210.084 77.3995H207.03C207.03 76.9615 206.89 76.6012 206.608 76.3187C206.326 76.0291 205.886 75.8843 205.287 75.8843C204.773 75.8843 204.375 76.0008 204.093 76.2339C203.811 76.467 203.67 76.7637 203.67 77.124C203.67 77.463 203.829 77.7385 204.146 77.9504C204.47 78.1553 205.012 78.3354 205.773 78.4908C206.534 78.6392 207.175 78.8087 207.696 78.9994C209.309 79.5928 210.116 80.6206 210.116 82.0828C210.116 83.1283 209.669 83.9759 208.774 84.6258C207.879 85.2686 206.724 85.59 205.308 85.59C204.35 85.59 203.498 85.4205 202.751 85.0814C202.011 84.7353 201.43 84.2655 201.007 83.6722C200.585 83.0717 200.373 82.4254 200.373 81.7331H203.269C203.297 82.2771 203.498 82.6938 203.871 82.9835C204.244 83.2731 204.744 83.4179 205.371 83.4179C205.956 83.4179 206.396 83.3084 206.692 83.0894C206.995 82.8634 207.147 82.5702 207.147 82.21Z" fill="#FF7755"/>
<defs>
<filter id="filter0_d" x="39" y="13" width="35" height="35" filterUnits="userSpaceOnUse" color-interpolation-filters="sRGB">
<feFlood flood-opacity="0" result="BackgroundImageFix"/>
<feColorMatrix in="SourceAlpha" type="matrix" values="0 0 0 0 0 0 0 0 0 0 0 0 0 0 0 0 0 0 127 0"/>
<feOffset dx="2"/>
<feGaussianBlur stdDeviation="2"/>
<feColorMatrix type="matrix" values="0 0 0 0 0 0 0 0 0 0 0 0 0 0 0 0 0 0 0.12 0"/>
<feBlend mode="normal" in2="BackgroundImageFix" result="effect1_dropShadow"/>
<feBlend mode="normal" in="SourceGraphic" in2="effect1_dropShadow" result="shape"/>
</filter>
<filter id="filter1_d" x="15" y="37" width="35" height="35" filterUnits="userSpaceOnUse" color-interpolation-filters="sRGB">
<feFlood flood-opacity="0" result="BackgroundImageFix"/>
<feColorMatrix in="SourceAlpha" type="matrix" values="0 0 0 0 0 0 0 0 0 0 0 0 0 0 0 0 0 0 127 0"/>
<feOffset dx="2"/>
<feGaussianBlur stdDeviation="2"/>
<feColorMatrix type="matrix" values="0 0 0 0 0 0 0 0 0 0 0 0 0 0 0 0 0 0 0.12 0"/>
<feBlend mode="normal" in2="BackgroundImageFix" result="effect1_dropShadow"/>
<feBlend mode="normal" in="SourceGraphic" in2="effect1_dropShadow" result="shape"/>
</filter>
<filter id="filter2_d" x="22" y="20" width="40" height="40" filterUnits="userSpaceOnUse" color-interpolation-filters="sRGB">
<feFlood flood-opacity="0" result="BackgroundImageFix"/>
<feColorMatrix in="SourceAlpha" type="matrix" values="0 0 0 0 0 0 0 0 0 0 0 0 0 0 0 0 0 0 127 0"/>
<feOffset dx="2"/>
<feGaussianBlur stdDeviation="2"/>
<feColorMatrix type="matrix" values="0 0 0 0 0 0 0 0 0 0 0 0 0 0 0 0 0 0 0.12 0"/>
<feBlend mode="normal" in2="BackgroundImageFix" result="effect1_dropShadow"/>
<feBlend mode="normal" in="SourceGraphic" in2="effect1_dropShadow" result="shape"/>
</filter>
</defs>
</svg>
