<svg width="53" height="62" viewBox="0 0 53 62" fill="none" xmlns="http://www.w3.org/2000/svg">
<path d="M24.66 21.5811C28.447 21.5008 32.2117 22.1796 35.7322 23.5774C39.2527 24.9752 42.4577 27.0638 45.1581 29.72C45.5596 30.1159 46.0963 30.3448 46.6599 30.3605C47.2236 30.3763 47.7722 30.1777 48.1952 29.8049L50.7648 27.5381C50.9943 27.336 51.1799 27.0888 51.3101 26.812C51.4403 26.5351 51.5122 26.2345 51.5214 25.9288C51.5306 25.623 51.477 25.3186 51.3637 25.0344C51.2505 24.7502 51.0802 24.4924 50.8632 24.2767C44.2449 17.6914 35.346 13.906 26.0119 13.7053C16.6777 13.5046 7.6243 16.9042 0.729142 23.1989C0.503179 23.4052 0.321902 23.6556 0.196528 23.9347C0.0711541 24.2137 0.00433364 24.5155 0.000203886 24.8215C-0.00392587 25.1274 0.0547209 25.4309 0.172516 25.7132C0.290311 25.9956 0.464757 26.2508 0.68507 26.463L3.15502 28.8376C3.55911 29.2277 4.09586 29.4506 4.65747 29.4613C5.21908 29.4721 5.76397 29.2699 6.18268 28.8955C11.258 24.3087 17.8203 21.7109 24.66 21.5811Z" fill="#2ECEF1"/>
<path d="M24.9696 25.9618C18.2509 26.0862 11.7948 28.5926 6.7521 33.0341C6.52121 33.2385 6.3352 33.4886 6.20582 33.7685C6.07645 34.0485 6.00651 34.3522 6.00043 34.6605C5.99436 34.9689 6.05228 35.2751 6.17053 35.5599C6.28878 35.8447 6.4648 36.1019 6.68747 36.3153L8.52901 38.0857C8.92897 38.4705 9.45815 38.6921 10.0129 38.7071C10.5677 38.7222 11.1081 38.5296 11.5284 38.1671C15.5413 34.7095 20.6914 32.8585 25.9872 32.9704C31.283 33.0823 36.3503 35.1492 40.2136 38.7732C40.6178 39.1566 41.1507 39.3752 41.7077 39.3861C42.2648 39.3969 42.8058 39.1993 43.2246 38.8319L45.14 37.1439C45.3715 36.941 45.5585 36.6925 45.6892 36.4138C45.8198 36.1351 45.8913 35.8324 45.8991 35.5247C45.9069 35.217 45.8508 34.911 45.7345 34.6261C45.6181 34.3411 45.444 34.0834 45.223 33.8691C42.5329 31.2841 39.3593 29.2551 35.8839 27.8982C32.4085 26.5414 28.6996 25.8834 24.9696 25.9618Z" fill="#2ECEF1"/>
<path d="M25.1517 43.0417C29.0917 42.9598 32.9188 44.3608 35.8748 46.9671C36.2831 47.3357 36.8122 47.542 37.3622 47.5472C37.9122 47.5523 38.445 47.3559 38.8601 46.995L39.7856 46.1777C40.0227 45.9681 40.2126 45.7105 40.3428 45.4221C40.4729 45.1337 40.5405 44.8209 40.5409 44.5044C40.5413 44.188 40.4746 43.875 40.3452 43.5863C40.2157 43.2975 40.0265 43.0395 39.79 42.8292C35.9631 39.3957 31.0305 37.4505 25.8901 37.3476C20.7497 37.2448 15.7433 38.9912 11.7822 42.2689C11.5448 42.4708 11.3526 42.7203 11.2179 43.0014C11.0833 43.2824 11.0094 43.5886 11.0008 43.9001C10.9923 44.2115 11.0494 44.5213 11.1685 44.8093C11.2875 45.0973 11.4658 45.3569 11.6918 45.5715L12.5841 46.4303C12.9835 46.8084 13.5075 47.0273 14.0571 47.0455C14.6068 47.0637 15.1441 46.8801 15.5677 46.5293C18.2852 44.3326 21.6579 43.1053 25.1517 43.0417Z" fill="#2ECEF1"/>
<path d="M25.7465 51.2153C28.1816 51.1647 30.547 52.0306 32.3739 53.6414C32.6262 53.8692 32.9532 53.9967 33.2932 53.9999C33.6331 54.0031 33.9624 53.8817 34.219 53.6587L34.791 53.1535C34.9375 53.024 35.0549 52.8648 35.1353 52.6865C35.2158 52.5083 35.2575 52.3149 35.2578 52.1194C35.2581 51.9238 35.2168 51.7304 35.1368 51.5519C35.0568 51.3734 34.9399 51.2139 34.7937 51.084C32.4285 48.9619 29.3799 47.7597 26.2029 47.6961C23.0258 47.6325 19.9316 48.7119 17.4834 50.7377C17.3367 50.8625 17.2179 51.0167 17.1347 51.1904C17.0515 51.3641 17.0058 51.5533 17.0005 51.7458C16.9952 51.9383 17.0305 52.1298 17.1041 52.3078C17.1777 52.4858 17.2879 52.6463 17.4276 52.7789L17.9791 53.3097C18.2259 53.5434 18.5497 53.6786 18.8895 53.6899C19.2292 53.7011 19.5613 53.5877 19.823 53.3708C21.5026 52.0132 23.5871 51.2546 25.7465 51.2153Z" fill="#2ECEF1"/>
<path d="M50.3005 34.1254C49.4536 36.3683 46.9488 37.5 44.7058 36.6531C42.4629 35.8062 41.3312 33.3014 42.1781 31.0585C43.025 28.8155 45.5298 27.6838 47.7727 28.5307C50.0157 29.3776 51.1474 31.8824 50.3005 34.1254Z" fill="#F92F57" stroke="white"/>
<path d="M49.3303 23.7248L49.3303 23.7248C49.3018 24.1887 49.1671 24.6388 48.9376 25.0389C48.7082 25.4389 48.3906 25.7774 48.0112 26.0279L48.2867 26.4451L48.0112 26.0279C47.6319 26.2784 47.201 26.434 46.7532 26.4832C46.3055 26.5323 45.8526 26.4736 45.4307 26.3115C44.9082 26.1101 44.4526 25.7578 44.1198 25.2957C43.787 24.8335 43.5919 24.2817 43.5591 23.7069C43.5591 23.7068 43.5591 23.7067 43.5591 23.7067L42.5065 4.82721L42.0073 4.85504L42.5065 4.8272C42.4753 4.26841 42.5565 3.70917 42.7447 3.184C42.933 2.65885 43.2242 2.17924 43.5999 1.77441C43.9756 1.3696 44.4278 1.04814 44.9285 0.829217C45.4291 0.610303 45.9679 0.49838 46.5118 0.500018C47.0557 0.501655 47.5938 0.616819 48.0932 0.83875C48.5925 1.06069 49.0429 1.38488 49.4163 1.79197C49.7897 2.19907 50.0782 2.68045 50.2634 3.20674C50.4486 3.73305 50.5265 4.29276 50.4921 4.85136L49.3303 23.7248Z" fill="#F92F57" stroke="white"/>
<circle cx="26" cy="58" r="4" fill="#2ECEF1"/>
</svg>
