<svg width="165" height="193" viewBox="0 0 165 193" fill="none" xmlns="http://www.w3.org/2000/svg">
<g opacity="0.8">
<rect x="1" y="29.2129" width="135" height="162.24" rx="11" stroke="#3F3D56" stroke-width="2"/>
<path d="M68.5457 38.8731C67.985 38.8731 67.4368 38.7055 66.9705 38.3916C66.5043 38.0777 66.1409 37.6315 65.9263 37.1095C65.7117 36.5875 65.6555 36.0131 65.7649 35.4589C65.8743 34.9047 66.1444 34.3956 66.5409 33.9961C66.9374 33.5966 67.4426 33.3245 67.9926 33.2142C68.5426 33.104 69.1126 33.1605 69.6307 33.3768C70.1488 33.593 70.5916 33.9591 70.9032 34.4289C71.2147 34.8987 71.381 35.4511 71.3811 36.0161C71.3802 36.7735 71.0812 37.4997 70.5497 38.0353C70.0181 38.5709 69.2975 38.8722 68.5457 38.8731ZM68.5457 33.8197C68.1146 33.8197 67.6931 33.9485 67.3346 34.1899C66.9761 34.4312 66.6967 34.7743 66.5317 35.1756C66.3668 35.577 66.3236 36.0187 66.4077 36.4447C66.4918 36.8708 66.6995 37.2622 67.0043 37.5694C67.3092 37.8766 67.6976 38.0858 68.1205 38.1705C68.5434 38.2553 68.9817 38.2117 69.38 38.0455C69.7784 37.8792 70.1188 37.5977 70.3583 37.2365C70.5979 36.8752 70.7257 36.4506 70.7257 36.0161C70.725 35.4338 70.4951 34.8755 70.0865 34.4637C69.6778 34.0519 69.1237 33.8203 68.5457 33.8197Z" fill="#3F3D56"/>
<path d="M68.546 189.448C67.8305 189.448 67.1311 189.234 66.5361 188.834C65.9412 188.433 65.4774 187.864 65.2036 187.198C64.9298 186.532 64.8581 185.799 64.9977 185.091C65.1373 184.384 65.4819 183.735 65.9878 183.225C66.4938 182.715 67.1384 182.368 67.8402 182.227C68.542 182.087 69.2694 182.159 69.9305 182.435C70.5915 182.711 71.1566 183.178 71.5541 183.777C71.9517 184.377 72.1639 185.082 72.1639 185.803C72.1628 186.769 71.7813 187.696 71.1031 188.379C70.4248 189.062 69.5052 189.447 68.546 189.448ZM68.546 183C67.9959 183 67.4581 183.164 67.0007 183.472C66.5432 183.78 66.1867 184.218 65.9762 184.73C65.7657 185.242 65.7106 185.806 65.8179 186.349C65.9253 186.893 66.1902 187.393 66.5792 187.784C66.9682 188.176 67.4639 188.443 68.0034 188.552C68.543 188.66 69.1023 188.604 69.6106 188.392C70.1189 188.18 70.5533 187.821 70.8589 187.36C71.1645 186.899 71.3277 186.357 71.3276 185.803C71.3268 185.059 71.0335 184.347 70.512 183.822C69.9905 183.296 69.2835 183.001 68.546 183Z" fill="#3F3D56"/>
<rect x="9.5" y="42.8194" width="119" height="134.019" fill="white" stroke="#3F3D56"/>
<path d="M109.861 73.246H74.1309C73.3728 73.246 72.6457 72.9426 72.1097 72.4025C71.5736 71.8623 71.2725 71.1298 71.2725 70.3659C71.2725 69.602 71.5736 68.8695 72.1097 68.3293C72.6457 67.7892 73.3728 67.4858 74.1309 67.4858H109.861C110.619 67.4858 111.346 67.7892 111.882 68.3293C112.418 68.8695 112.719 69.602 112.719 70.3659C112.719 71.1298 112.418 71.8623 111.882 72.4025C111.346 72.9426 110.619 73.246 109.861 73.246Z" fill="#3F3D56"/>
<path d="M109.861 88.3667H74.1309C73.3728 88.3667 72.6457 88.0633 72.1097 87.5231C71.5736 86.983 71.2725 86.2504 71.2725 85.4866C71.2725 84.7227 71.5736 83.9902 72.1097 83.45C72.6457 82.9099 73.3728 82.6064 74.1309 82.6064H109.861C110.619 82.6064 111.346 82.9099 111.882 83.45C112.418 83.9902 112.719 84.7227 112.719 85.4866C112.719 86.2504 112.418 86.983 111.882 87.5231C111.346 88.0633 110.619 88.3667 109.861 88.3667Z" fill="#3F3D56"/>
<path d="M58.7973 94.9612H32.6859C31.8334 94.9602 31.016 94.6186 30.4131 94.0111C29.8103 93.4037 29.4712 92.5801 29.4702 91.7211V60.6736C29.4712 59.8146 29.8103 58.991 30.4131 58.3835C31.016 57.7761 31.8334 57.4344 32.6859 57.4335H58.7973C59.6498 57.4344 60.4672 57.7761 61.0701 58.3835C61.6729 58.991 62.012 59.8146 62.0129 60.6736V91.7211C62.012 92.5801 61.6729 93.4037 61.0701 94.0111C60.4672 94.6186 59.6498 94.9602 58.7973 94.9612Z" fill="#F2945B"/>
<path d="M109.613 119.328H28.8633C28.4875 119.329 28.1153 119.255 27.7679 119.11C27.4206 118.966 27.1049 118.754 26.8389 118.486C26.573 118.219 26.362 117.901 26.218 117.551C26.0741 117.201 26 116.826 26 116.448C26 116.069 26.0741 115.694 26.218 115.345C26.362 114.995 26.573 114.677 26.8389 114.41C27.1049 114.142 27.4206 113.93 27.7679 113.786C28.1153 113.641 28.4875 113.567 28.8633 113.568H109.613C110.37 113.569 111.096 113.873 111.631 114.413C112.166 114.953 112.466 115.685 112.466 116.448C112.466 117.211 112.166 117.943 111.631 118.483C111.096 119.023 110.37 119.327 109.613 119.328Z" fill="#CCCCCC"/>
<path d="M109.613 134.449H28.8633C28.4875 134.449 28.1153 134.375 27.7679 134.231C27.4206 134.086 27.1049 133.874 26.8389 133.607C26.573 133.339 26.362 133.022 26.218 132.672C26.0741 132.322 26 131.947 26 131.568C26 131.19 26.0741 130.815 26.218 130.465C26.362 130.115 26.573 129.798 26.8389 129.53C27.1049 129.263 27.4206 129.051 27.7679 128.906C28.1153 128.762 28.4875 128.688 28.8633 128.688H109.613C110.371 128.688 111.098 128.992 111.634 129.532C112.17 130.072 112.471 130.805 112.471 131.568C112.471 132.332 112.17 133.065 111.634 133.605C111.098 134.145 110.371 134.449 109.613 134.449Z" fill="#CCCCCC"/>
<path d="M109.613 149.569H28.8633C28.4875 149.57 28.1153 149.496 27.7679 149.351C27.4206 149.207 27.1049 148.995 26.8389 148.727C26.573 148.46 26.362 148.142 26.218 147.792C26.0741 147.443 26 147.068 26 146.689C26 146.311 26.0741 145.936 26.218 145.586C26.362 145.236 26.573 144.918 26.8389 144.651C27.1049 144.383 27.4206 144.171 27.7679 144.027C28.1153 143.882 28.4875 143.808 28.8633 143.809H109.613C110.371 143.809 111.098 144.112 111.634 144.653C112.17 145.193 112.471 145.925 112.471 146.689C112.471 147.453 112.17 148.186 111.634 148.726C111.098 149.266 110.371 149.569 109.613 149.569Z" fill="#CCCCCC"/>
<path d="M109.613 164.69H28.8633C28.4875 164.691 28.1153 164.617 27.7679 164.472C27.4206 164.328 27.1049 164.116 26.8389 163.848C26.573 163.581 26.362 163.263 26.218 162.913C26.0741 162.563 26 162.188 26 161.81C26 161.431 26.0741 161.056 26.218 160.706C26.362 160.357 26.573 160.039 26.8389 159.771C27.1049 159.504 27.4206 159.292 27.7679 159.147C28.1153 159.003 28.4875 158.929 28.8633 158.93H109.613C110.371 158.93 111.098 159.233 111.634 159.773C112.17 160.313 112.471 161.046 112.471 161.81C112.471 162.574 112.17 163.306 111.634 163.846C111.098 164.386 110.371 164.69 109.613 164.69Z" fill="#CCCCCC"/>
</g>
<path d="M137 56.4259C152.464 56.4259 165 43.7945 165 28.2129C165 12.6314 152.464 0 137 0C121.536 0 109 12.6314 109 28.2129C109 43.7945 121.536 56.4259 137 56.4259Z" fill="#F5A879"/>
<path d="M136.622 47.2757C138.502 47.2757 140.027 45.7395 140.027 43.8444C140.027 41.9494 138.502 40.4131 136.622 40.4131C134.741 40.4131 133.216 41.9494 133.216 43.8444C133.216 45.7395 134.741 47.2757 136.622 47.2757Z" fill="white"/>
<path d="M135.796 9.15041C133.325 9.17555 130.961 10.1888 129.208 11.9745C127.454 13.7603 126.449 16.1775 126.406 18.7118C126.406 18.7603 126.405 19.1014 126.405 19.5476C126.405 20.2017 126.659 20.829 127.11 21.2916C127.56 21.7541 128.172 22.014 128.81 22.0141C129.448 22.0139 130.06 21.7538 130.511 21.2908C130.962 20.8278 131.216 20.2 131.216 19.5454V19.5438C131.215 19.2403 131.215 19.0303 131.215 19.0174C131.215 18.2053 131.421 17.4072 131.813 16.7016C132.204 15.996 132.768 15.4071 133.449 14.9929C134.13 14.5787 134.905 14.3534 135.696 14.3393C136.488 14.3251 137.269 14.5226 137.964 14.9122C138.658 15.3019 139.242 15.8702 139.658 16.5615C140.073 17.2527 140.306 18.0429 140.333 18.8545C140.361 19.666 140.182 20.4709 139.814 21.19C139.446 21.909 138.902 22.5174 138.235 22.9554L138.236 22.9565C138.236 22.9565 134.814 25.2164 133.771 28.3166L133.771 28.3168C133.588 28.9519 133.495 29.6109 133.495 30.2733C133.495 30.5456 133.511 32.928 133.541 34.8617C133.552 35.5289 133.818 36.1652 134.281 36.6331C134.745 37.101 135.37 37.3632 136.02 37.3631C136.346 37.3631 136.668 37.2973 136.969 37.1694C137.27 37.0416 137.543 36.8543 137.773 36.6181C138.004 36.3819 138.186 36.1016 138.311 35.793C138.436 35.4844 138.5 35.1537 138.5 34.8197L138.5 34.8041C138.489 33.0332 138.483 30.9711 138.483 30.8215C138.483 28.9178 140.274 27.0212 141.744 25.7843C143.447 24.3701 144.643 22.4164 145.146 20.2295C145.254 19.7787 145.314 19.3171 145.324 18.8529C145.324 17.5787 145.08 16.317 144.604 15.1398C144.129 13.9626 143.432 12.893 142.554 11.992C141.675 11.091 140.632 10.3763 139.485 9.88873C138.337 9.40112 137.107 9.15015 135.865 9.15015C135.842 9.15015 135.819 9.15024 135.796 9.15041Z" fill="white"/>
</svg>
